<svg id="Layer_1" data-name="Layer 1" xmlns="http://www.w3.org/2000/svg" viewBox="0 0 224.53 66.09"><defs><style>.cls-1{fill:#fff;}</style></defs><title>logo</title><path class="cls-1" d="M23.78,67.09s13.85-76.42,76.7-29c0,0-44.7-20.87-76.7,29" transform="translate(-1.81 -1)"/><path class="cls-1" d="M81.52,1.06S58.43,59.36,1.81,19.92c0,0,40.51,21.94,79.72-18.87" transform="translate(-1.81 -1)"/><path class="cls-1" d="M6.35,63.47S52.54-8,103.43,31.17c0,0-52.94-16.23-97.08,32.3" transform="translate(-1.81 -1)"/><path class="cls-1" d="M113.67,10.53h9l8.77,23h.14l8.84-23h8.43l-13,32.9h-8.77Z" transform="translate(-1.81 -1)"/><path class="cls-1" d="M152.23,10.53h8.22v32.9h-8.22Z" transform="translate(-1.81 -1)"/><path class="cls-1" d="M164.42,17.52v-7h6.78V1h8.22v9.53h9v7h-9V31.91c0,3.29,1,5.35,4.59,5.35a8.57,8.57,0,0,0,4.45-1v6.92a17.35,17.35,0,0,1-6.51,1.1c-8.7,0-10.76-3.91-10.76-11.65V17.52Z" transform="translate(-1.81 -1)"/><path class="cls-1" d="M208.45,9.7c9.94,0,17.89,6.92,17.89,17.27s-7.95,17.27-17.89,17.27S190.57,37.32,190.57,27,198.52,9.7,208.45,9.7Zm0,27.14c6,0,9.66-4.73,9.66-9.87s-3.63-9.87-9.66-9.87-9.66,4.73-9.66,9.87S202.42,36.84,208.45,36.84Z" transform="translate(-1.81 -1)"/></svg>